<?xml version="1.0" standalone="no"?>
<!DOCTYPE svg PUBLIC "-//W3C//DTD SVG 20010904//EN"
 "http://www.w3.org/TR/2001/REC-SVG-20010904/DTD/svg10.dtd">
<svg version="1.0" xmlns="http://www.w3.org/2000/svg"
 width="836.000000pt" height="836.000000pt" viewBox="0 0 836.000000 836.000000"
 preserveAspectRatio="xMidYMid meet">

<g transform="translate(0.000000,836.000000) scale(0.100000,-0.100000)"
fill="#000000" stroke="none">
<path d="M4925 7632 c-246 -130 -483 -305 -617 -454 l-66 -73 -124 -6 c-124
-6 -229 -29 -326 -70 l-46 -20 -84 41 c-97 49 -189 81 -326 116 -128 33 -356
71 -474 80 l-92 7 0 -64 c0 -236 89 -500 273 -807 l94 -159 5 -176 5 -175 -46
-7 c-129 -18 -486 -77 -553 -91 -54 -12 -78 -21 -78 -32 0 -8 6 -12 14 -9 37
14 280 59 446 82 102 14 195 28 207 30 18 4 24 -2 37 -42 9 -26 16 -50 16 -54
0 -5 -111 -45 -247 -89 -304 -98 -278 -89 -267 -100 5 -5 104 22 253 70 134
44 251 80 261 80 23 0 75 -111 57 -123 -6 -4 -84 -49 -172 -99 -200 -114 -355
-210 -355 -220 0 -17 23 -5 162 78 193 117 367 214 383 214 7 0 34 -29 60 -65
96 -136 241 -257 386 -323 46 -22 92 -42 102 -45 22 -8 23 -6 -17 -165 -133
-530 -173 -1035 -125 -1582 l11 -135 -43 -70 c-65 -106 -144 -278 -178 -390
-126 -408 -119 -793 21 -1193 22 -63 38 -115 36 -118 -3 -2 -45 5 -94 16 -460
100 -962 59 -1364 -112 -271 -115 -436 -220 -483 -307 -64 -116 -10 -225 124
-253 73 -15 141 1 316 75 290 124 476 160 818 160 334 -1 516 -29 1145 -178
517 -122 596 -139 760 -164 447 -67 810 -51 1115 50 216 71 461 221 585 356
172 188 290 423 341 683 33 165 33 467 1 653 -74 413 -261 809 -665 1402 -56
83 -129 185 -162 228 -33 42 -76 99 -95 127 -43 63 -61 88 -481 665 -111 154
-238 329 -281 389 -43 60 -88 120 -98 134 -26 32 -26 32 11 78 42 53 100 155
134 237 15 37 30 67 32 67 11 0 499 -153 543 -170 39 -15 50 -17 50 -6 0 14
-228 95 -454 161 -66 19 -123 38 -127 42 -4 5 0 36 8 71 12 46 20 62 33 62 19
0 396 -36 473 -45 36 -4 47 -2 47 8 0 16 1 16 -322 43 l-208 18 0 53 c0 34 5
55 13 58 19 7 368 34 530 41 88 4 147 11 147 17 0 12 -288 2 -520 -17 -85 -8
-158 -12 -162 -9 -5 2 -8 22 -8 43 0 92 -43 253 -100 373 l-31 64 22 149 c27
185 36 479 19 596 -22 154 -80 348 -104 348 -6 0 -51 -22 -101 -48z"/>
</g>
</svg>
