<?xml version="1.0" standalone="no"?>
<!DOCTYPE svg PUBLIC "-//W3C//DTD SVG 20010904//EN"
 "http://www.w3.org/TR/2001/REC-SVG-20010904/DTD/svg10.dtd">
<svg version="1.0" xmlns="http://www.w3.org/2000/svg"
 width="836.000000pt" height="836.000000pt" viewBox="0 0 836.000000 836.000000"
 preserveAspectRatio="xMidYMid meet">

<g transform="translate(0.000000,836.000000) scale(0.100000,-0.100000)"
fill="#000000" stroke="none">
<path d="M4925 7632 c-229 -121 -432 -267 -585 -423 l-105 -106 -125 -6 c-125
-5 -174 -15 -301 -63 l-65 -24 -90 44 c-185 91 -516 171 -793 192 l-94 7 6
-104 c14 -250 91 -469 274 -775 l90 -151 5 -176 5 -175 -111 -17 c-156 -23
-451 -73 -513 -87 -34 -7 -53 -16 -53 -26 0 -8 6 -12 14 -9 37 14 280 59 446
82 102 14 195 28 207 30 18 4 24 -2 37 -42 9 -26 16 -50 16 -54 0 -5 -111 -45
-247 -89 -304 -99 -278 -89 -267 -100 6 -6 103 22 252 70 134 44 251 80 260
80 12 0 28 -20 45 -55 15 -31 27 -57 27 -59 0 -3 -33 -22 -72 -44 -204 -111
-468 -272 -468 -284 0 -17 24 -5 162 78 193 117 367 214 383 214 7 0 34 -29
60 -65 110 -155 275 -284 452 -354 30 -12 75 -1 615 145 461 124 588 162 609
181 32 30 108 158 144 246 15 37 30 67 33 67 12 0 497 -152 542 -170 39 -15
50 -17 50 -6 0 14 -238 98 -454 160 -65 19 -122 38 -126 43 -5 4 -1 36 7 71
13 52 19 62 37 62 21 0 372 -34 469 -45 36 -4 47 -2 47 8 0 16 1 16 -322 43
l-208 18 0 53 c0 34 5 55 13 58 19 7 368 34 530 41 88 4 147 11 147 17 0 12
-288 2 -520 -17 -85 -8 -158 -12 -162 -9 -5 2 -8 22 -8 43 0 92 -43 253 -100
373 l-31 64 22 149 c27 185 36 479 19 596 -22 154 -80 348 -104 348 -6 0 -51
-22 -101 -48z m-200 -832 c146 -37 230 -112 290 -257 14 -32 17 -62 13 -131
-3 -75 -9 -100 -36 -155 -42 -84 -118 -155 -204 -190 -56 -22 -76 -25 -164
-23 -124 4 -202 22 -329 76 -55 24 -112 43 -126 43 -19 0 -46 -22 -110 -88
-256 -266 -444 -336 -649 -242 -50 23 -170 141 -170 167 0 9 -5 21 -11 27 -6
6 -11 56 -11 114 -2 135 25 205 117 310 117 132 260 186 505 190 170 3 239 20
435 104 181 78 303 93 450 55z m-415 -815 c27 -14 60 -60 60 -83 0 -6 -11 -13
-25 -16 -33 -9 -50 -42 -36 -72 9 -20 7 -25 -9 -34 -10 -5 -30 -10 -43 -10
-19 0 -24 4 -21 18 8 29 -21 57 -58 57 -29 0 -33 4 -36 29 -11 90 86 154 168
111z"/>
<path d="M4462 6511 c-50 -18 -138 -95 -147 -128 -7 -27 15 -38 98 -51 91 -14
175 8 257 67 47 33 60 50 60 77 0 48 -173 71 -268 35z"/>
<path d="M3673 6321 c-106 -31 -186 -107 -154 -145 16 -19 89 -36 158 -36 110
0 269 81 261 133 -8 56 -150 83 -265 48z"/>
<path d="M4595 5199 c-269 -43 -553 -87 -631 -99 l-140 -22 -27 -111 c-15 -60
-26 -111 -25 -112 2 -2 41 3 88 11 47 8 371 59 720 114 349 55 638 102 642
103 5 1 -126 188 -136 193 0 0 -221 -34 -491 -77z"/>
<path d="M4523 4771 c-431 -64 -787 -121 -792 -126 -8 -8 -53 -268 -47 -271 5
-3 1856 272 1856 276 0 3 -37 57 -83 120 -77 106 -86 115 -118 117 -19 1 -386
-51 -816 -116z"/>
<path d="M4657 4320 c-543 -81 -989 -149 -991 -151 -2 -2 -6 -64 -10 -137 l-6
-132 22 5 c20 4 1297 190 1970 287 l216 31 -49 66 c-27 36 -68 92 -91 123 -24
31 -50 57 -58 56 -8 0 -460 -67 -1003 -148z"/>
<path d="M4802 3887 l-1152 -172 6 -130 c4 -71 8 -131 9 -133 2 -2 640 90
2194 317 150 22 276 42 278 45 3 3 -28 51 -68 108 -41 56 -77 111 -81 120 -4
10 -13 18 -20 17 -7 -1 -532 -78 -1166 -172z"/>
<path d="M4970 3396 l-1285 -152 -33 -49 c-56 -84 -159 -304 -191 -410 -124
-405 -119 -776 15 -1174 25 -73 43 -135 41 -137 -2 -2 -55 7 -118 20 -446 94
-945 51 -1339 -116 -270 -115 -436 -220 -483 -307 -64 -116 -10 -225 124 -253
73 -15 141 1 316 75 290 124 481 161 823 160 328 -1 514 -30 1140 -178 628
-148 747 -171 1015 -194 579 -50 1058 82 1396 386 125 112 256 319 332 523 61
164 81 294 82 525 0 312 -40 505 -177 850 -46 117 -174 366 -253 495 -52 84
-58 90 -88 89 -18 -1 -610 -70 -1317 -153z"/>
</g>
</svg>
